<svg width="336" height="140" viewBox="0 0 336 140" fill="none" xmlns="http://www.w3.org/2000/svg">
<g clip-path="url(#clip0_756_3959)">
<rect width="336" height="140" rx="4" fill="#121214"/>
<path fill-rule="evenodd" clip-rule="evenodd" d="M-84.6343 117.301H81.9567C83.4595 117.301 84.6794 118.521 84.6794 120.027V198.274C84.6794 199.78 83.4595 201 81.9567 201H-84.6343C-86.1372 201 -87.357 199.78 -87.357 198.274V120.027C-87.357 118.521 -86.1372 117.301 -84.6343 117.301ZM65.2045 -69H231.796C233.298 -69 234.518 -67.7804 234.518 -66.274V11.9726C234.518 13.479 233.298 14.6986 231.796 14.6986H65.2045C63.7016 14.6986 62.4818 13.479 62.4818 11.9726V-66.274C62.4818 -67.7804 63.7016 -69 65.2045 -69ZM-116.277 -69H50.3137C51.8166 -69 53.0364 -67.7804 53.0364 -66.274V11.9726C53.0364 13.479 51.8166 14.6986 50.3137 14.6986H-116.277C-117.78 14.6986 -119 13.479 -119 11.9726V-66.274C-119 -67.7804 -117.78 -69 -116.277 -69ZM174.094 24.1507H340.685C342.187 24.1507 343.407 25.3703 343.407 26.8767V105.123C343.407 106.63 342.187 107.849 340.685 107.849H174.094C172.591 107.849 171.371 106.63 171.371 105.123V35.5H216.793L223.646 42.3536L223.793 42.5H224H240.88C241.114 43.7338 242.198 44.6667 243.5 44.6667C244.973 44.6667 246.167 43.4728 246.167 42C246.167 40.5272 244.973 39.3333 243.5 39.3333C242.198 39.3333 241.114 40.2662 240.88 41.5H224.207L217.354 34.6464L217.207 34.5H217H171.371V26.8767C171.371 25.3703 172.591 24.1507 174.094 24.1507ZM96.8475 117.301H334.17C335.673 117.301 336.893 118.521 336.893 120.027V198.274C336.893 199.78 335.673 201 334.17 201H96.8475C95.3446 201 94.1248 199.78 94.1248 198.274V120.027C94.1248 118.521 95.3446 117.301 96.8475 117.301ZM246.686 -69H413.277C414.78 -69 416 -67.7804 416 -66.274V11.9726C416 13.479 414.78 14.6986 413.277 14.6986H246.686C245.183 14.6986 243.964 13.479 243.964 11.9726V-66.274C243.964 -67.7804 245.183 -69 246.686 -69ZM-116.277 -70C-118.333 -70 -120 -68.3318 -120 -66.274V11.9726C-120 14.0304 -118.333 15.6986 -116.277 15.6986H50.3137C52.3697 15.6986 54.0364 14.0304 54.0364 11.9726V-66.274C54.0364 -68.3318 52.3697 -70 50.3137 -70H-116.277ZM61.4818 -66.274C61.4818 -68.3318 63.1485 -70 65.2045 -70H231.796C233.852 -70 235.518 -68.3318 235.518 -66.274V11.9726C235.518 14.0304 233.852 15.6986 231.796 15.6986H65.2045C63.1485 15.6986 61.4818 14.0304 61.4818 11.9726V-66.274ZM-88.357 120.027C-88.357 117.97 -86.6903 116.301 -84.6343 116.301H81.9567C84.0127 116.301 85.6794 117.97 85.6794 120.027V198.274C85.6794 200.332 84.0127 202 81.9567 202H-84.6343C-86.6903 202 -88.357 200.332 -88.357 198.274V120.027ZM170.371 26.8767C170.371 24.8189 172.038 23.1507 174.094 23.1507H340.685C342.741 23.1507 344.407 24.8189 344.407 26.8767V105.123C344.407 107.181 342.741 108.849 340.685 108.849H174.094C172.038 108.849 170.371 107.181 170.371 105.123V26.8767ZM96.8475 116.301C94.7915 116.301 93.1248 117.97 93.1248 120.027V198.274C93.1248 200.332 94.7915 202 96.8475 202H334.17C336.226 202 337.893 200.332 337.893 198.274V120.027C337.893 117.97 336.226 116.301 334.17 116.301H96.8475ZM242.964 -66.274C242.964 -68.3318 244.63 -70 246.686 -70H413.277C415.333 -70 417 -68.3318 417 -66.274V11.9726C417 14.0304 415.333 15.6986 413.277 15.6986H246.686C244.63 15.6986 242.964 14.0304 242.964 11.9726V-66.274ZM259.324 60.5H292.38C292.614 59.2662 293.698 58.3333 295 58.3333C296.473 58.3333 297.667 59.5272 297.667 61C297.667 62.4728 296.473 63.6667 295 63.6667C293.698 63.6667 292.614 62.7338 292.38 61.5H259.499L244.614 73.3907L244.477 73.5H244.302H191.5V72.5H244.127L259.012 60.6093L259.149 60.5H259.324ZM36.6199 29.5H69.6763H69.8515L69.9883 29.6093L84.873 41.5H137.5V42.5H84.6978H84.5226L84.3858 42.3907L69.5011 30.5H36.6199C36.3858 31.7338 35.3019 32.6667 34 32.6667C32.5272 32.6667 31.3333 31.4728 31.3333 30C31.3333 28.5272 32.5272 27.3333 34 27.3333C35.3019 27.3333 36.3858 28.2662 36.6199 29.5ZM229 101.5H254.88C255.114 102.734 256.198 103.667 257.5 103.667C258.973 103.667 260.167 102.473 260.167 101C260.167 99.5272 258.973 98.3333 257.5 98.3333C256.198 98.3333 255.114 99.2662 254.88 100.5H229.207L217.354 88.6465L217.207 88.5H217H197.5V89.5H216.793L228.646 101.354L228.793 101.5H229ZM90.6199 94.5H116.5H116.707L116.854 94.6465L128.707 106.5H166.5V107.5H128.5H128.293L128.146 107.354L116.293 95.5H90.6199C90.3858 96.7338 89.3019 97.6667 88 97.6667C86.5272 97.6667 85.3333 96.4728 85.3333 95C85.3333 93.5272 86.5272 92.3333 88 92.3333C89.3019 92.3333 90.3858 93.2662 90.6199 94.5ZM88.1199 61.5H105H105.207L105.354 61.3535L112.207 54.5H158.5V53.5H112H111.793L111.646 53.6464L104.793 60.5H88.1199C87.8858 59.2662 86.8019 58.3333 85.5 58.3333C84.0272 58.3333 82.8333 59.5272 82.8333 61C82.8333 62.4728 84.0272 63.6667 85.5 63.6667C86.8019 63.6667 87.8858 62.7338 88.1199 61.5ZM136 80.5H34.6199C34.3858 81.7338 33.3018 82.6667 32 82.6667C30.5272 82.6667 29.3333 81.4728 29.3333 80C29.3333 78.5272 30.5272 77.3333 32 77.3333C33.3018 77.3333 34.3858 78.2662 34.6199 79.5H136V80.5Z" fill="url(#paint0_radial_756_3959)" fill-opacity="0.3"/>
<g filter="url(#filter0_f_756_3959)">
<circle cx="168" cy="70" r="26" fill="#A098F1"/>
</g>
<mask id="path-4-inside-1_756_3959" fill="white">
<path d="M202.381 93.3434C196.495 101.978 184.984 106.357 168.174 106.357L168.146 106.357C151.362 106.352 139.879 101.972 134.018 93.3381C129.112 86.1105 128.482 76.8973 128.482 69.6782C128.482 62.4594 129.112 53.2466 134.018 46.0193C139.879 37.386 151.362 33.0058 168.147 33L168.18 33C184.989 32.9997 196.495 37.3775 202.381 46.0121C207.319 53.2552 207.952 62.4644 207.952 69.6782C207.952 76.8919 207.319 86.1007 202.381 93.3434Z"/>
</mask>
<path d="M202.381 93.3434C196.495 101.978 184.984 106.357 168.174 106.357L168.146 106.357C151.362 106.352 139.879 101.972 134.018 93.3381C129.112 86.1105 128.482 76.8973 128.482 69.6782C128.482 62.4594 129.112 53.2466 134.018 46.0193C139.879 37.386 151.362 33.0058 168.147 33L168.18 33C184.989 32.9997 196.495 37.3775 202.381 46.0121C207.319 53.2552 207.952 62.4644 207.952 69.6782C207.952 76.8919 207.319 86.1007 202.381 93.3434Z" fill="url(#paint1_linear_756_3959)" stroke="#DEE0FC" stroke-width="4" mask="url(#path-4-inside-1_756_3959)"/>
<path fill-rule="evenodd" clip-rule="evenodd" d="M178.082 57.4625V57.3053C176.976 57.1284 176.47 56.6223 176.293 55.5217H176.136C175.959 56.6223 175.453 57.1235 174.352 57.3053V57.4625C175.453 57.6443 175.954 58.1454 176.136 59.2509H176.293C176.475 58.1454 176.976 57.6443 178.082 57.4625ZM187.522 63.7714V63.9384C184.112 64.248 182.805 65.5598 182.495 68.9647H182.328C182.019 65.5598 180.712 64.248 177.302 63.9384V63.7714C180.712 63.4618 182.019 62.1549 182.333 58.7451H182.49C182.805 62.1549 184.112 63.4618 187.522 63.7714ZM164.335 59.9537L185.054 84.6185H179.507L173.842 77.8774H163.952C163.76 77.8774 163.608 77.9364 163.495 78.0543C163.377 78.1722 163.318 78.3245 163.318 78.5063V84.6185H159.122V60.8676C159.122 60.0814 159.756 59.4476 160.542 59.4476H163.249C163.667 59.4476 164.065 59.6343 164.335 59.9537ZM163.318 77.5482L166.369 74.2661H170.806L163.318 65.3534V77.5482ZM148.912 59.4524V84.6183V84.6232H153.074V59.4524H148.912Z" fill="#DEE0FC"/>
</g>
<defs>
<filter id="filter0_f_756_3959" x="62" y="-36" width="212" height="212" filterUnits="userSpaceOnUse" color-interpolation-filters="sRGB">
<feFlood flood-opacity="0" result="BackgroundImageFix"/>
<feBlend mode="normal" in="SourceGraphic" in2="BackgroundImageFix" result="shape"/>
<feGaussianBlur stdDeviation="40" result="effect1_foregroundBlur_756_3959"/>
</filter>
<radialGradient id="paint0_radial_756_3959" cx="0" cy="0" r="1" gradientUnits="userSpaceOnUse" gradientTransform="translate(168 66) rotate(90) scale(84.5 166.974)">
<stop stop-color="#DEE0FC"/>
<stop offset="1" stop-color="#DEE0FC" stop-opacity="0"/>
</radialGradient>
<linearGradient id="paint1_linear_756_3959" x1="128.497" y1="33.2022" x2="201.718" y2="112.551" gradientUnits="userSpaceOnUse">
<stop stop-color="#A29AF5"/>
<stop offset="1" stop-color="#342C66"/>
</linearGradient>
<clipPath id="clip0_756_3959">
<rect width="336" height="140" rx="4" fill="white"/>
</clipPath>
</defs>
</svg>
